<?xml version="1.0" encoding="UTF-8" standalone="no"?>
<!-- Generator: Adobe Illustrator 19.0.0, SVG Export Plug-In . SVG Version: 6.00 Build 0)  -->

<svg
   xmlns:dc="http://purl.org/dc/elements/1.1/"
   xmlns:cc="http://creativecommons.org/ns#"
   xmlns:rdf="http://www.w3.org/1999/02/22-rdf-syntax-ns#"
   xmlns:svg="http://www.w3.org/2000/svg"
   xmlns="http://www.w3.org/2000/svg"
   xmlns:sodipodi="http://sodipodi.sourceforge.net/DTD/sodipodi-0.dtd"
   xmlns:inkscape="http://www.inkscape.org/namespaces/inkscape"
   version="1.1"
   id="Layer_1"
   x="0px"
   y="0px"
   viewBox="0 0 16 16"
   xml:space="preserve"
   inkscape:version="0.48.4 r9939"
   width="100%"
   height="100%"
   sodipodi:docname="icon-gplus.svg"><metadata
     id="metadata11"><rdf:RDF><cc:Work
         rdf:about=""><dc:format>image/svg+xml</dc:format><dc:type
           rdf:resource="http://purl.org/dc/dcmitype/StillImage" /><dc:title></dc:title></cc:Work></rdf:RDF></metadata><defs
     id="defs9" /><sodipodi:namedview
     pagecolor="#ffffff"
     bordercolor="#666666"
     borderopacity="1"
     objecttolerance="10"
     gridtolerance="10"
     guidetolerance="10"
     inkscape:pageopacity="0"
     inkscape:pageshadow="2"
     inkscape:window-width="1323"
     inkscape:window-height="744"
     id="namedview7"
     showgrid="false"
     fit-margin-top="0"
     fit-margin-left="0"
     fit-margin-right="0"
     fit-margin-bottom="0"
     inkscape:zoom="2.4583333"
     inkscape:cx="9.6016947"
     inkscape:cy="9.1949153"
     inkscape:window-x="43"
     inkscape:window-y="24"
     inkscape:window-maximized="1"
     inkscape:current-layer="Layer_1" /><style
     type="text/css"
     id="style3">
	.st0{fill:#333333;}
</style><g
     id="XMLID_1_"
     transform="matrix(0.29090909,0,0,0.29090909,-5.9636363,-5.9636363)"
     inkscape:export-xdpi="90"
     inkscape:export-ydpi="90"><path
       id="XMLID_6_"
       class="st0"
       d="M 48,20.5 C 32.8,20.5 20.5,32.8 20.5,48 20.5,63.2 32.8,75.5 48,75.5 63.2,75.5 75.5,63.2 75.5,48 75.5,32.8 63.2,20.5 48,20.5 z m 2.6,34.7 c -2.8,4 -8.6,5.2 -13,3.5 -4.5,-1.7 -7.7,-6.4 -7.3,-11.3 0.1,-5.9 5.5,-11.1 11.4,-10.9 2.8,-0.1 5.5,1.1 7.7,2.8 -0.9,1.1 -1.9,2.1 -2.9,3 -2.6,-1.8 -6.3,-2.3 -8.9,-0.2 -3.7,2.6 -3.9,8.7 -0.3,11.4 3.5,3.2 10.1,1.6 11,-3.2 -2.2,0 -4.4,0 -6.6,-0.1 0,-1.3 0,-2.6 0,-3.9 3.6,0 7.3,0 11,0 0.2,3.1 -0.2,6.4 -2.1,8.9 z m 15.7,-5.6 c -1.1,0 -2.2,0 -3.3,0 0,1.1 0,2.2 0,3.3 -1.1,0 -2.2,0 -3.3,0 0,-1.1 0,-2.2 0,-3.3 -1.1,0 -2.2,0 -3.3,0 0,-1.1 0,-2.2 0,-3.3 1.1,0 2.2,0 3.3,0 0,-1.1 0,-2.2 0,-3.3 1.1,0 2.2,0 3.3,0 0,1.1 0,2.2 0,3.3 1.1,0 2.2,0 3.3,0 0,1.1 0,2.2 0,3.3 z"
       inkscape:connector-curvature="0"
       style="fill:#333333" /></g></svg>